# xmcd
#
# Track frame offsets:
#	205
#	14887
#	26557
#	37960
#	48182
#	63930
#	76852
#	87095
#	98275
#	111235
#	124167
#	139155
#	151427
#	161865
#	171887
#	183872
#	195907
#	212672
#	223120
#	236040
#	246332
#	254607
#
# Disc length: 3636 seconds
#
# Revision: 0
# Processed by: cddbd v1.5.2PL0 Copyright (c) Steve Scherf et al.
# Submitted via: audiograbber 1.83.01
#
DISCID=2c0e3216
DTITLE=Various Artist - Tasty New Doo Wop
DYEAR=1991
DGENRE=Doo Wop
TTITLE0=Earl Lewis and The Channels - Do What Lovers Do
TTITLE1=The Storytellers - Please Remember My Love
TTITLE2=Joel and The Dymensions - Whispering Bells
TTITLE3=Richard Blandon and The Dubs - Wherever You Are
TTITLE4=Earl Lewis and The Channels - You Promised Me Love
TTITLE5=Herb Cox and The Cleftones - My Angel Lover
TTITLE6=George Grant and The Castelles - Darling You Lied
TTITLE7=Joel and The Dymensions - A Thousand Miles Away
TTITLE8=Leon Peels and The Bluejays - Once Upon A Love
TTITLE9=George Grant and The Castelles - Baby Please Don't Stop
TTITLE10=Johnny Staton and The Feathers - Charlene
TTITLE11=Margo Sylvia and The Tune Weavers - I've Tried
TTITLE12=The Five Boroughs - Heaven And Ciindy
TTITLE13=The Wrens, ft. Bobby Mansfield - Why Can't You
TTITLE14=The Jaguars, ft. Val Poliuto - Play A Love Song
TTITLE15=The Five Boroughs - One Too Many LIes
TTITLE16=The Vocaleers, ft. Joe Duncan - Could You Adore Me
TTITLE17=Rudy West and The Five Keys - Express Yourself Back Home
TTITLE18=The Calvanes - Have You No Heart
TTITLE19=Richard Blandon and The Dubs - This Time
TTITLE20=Joel and The Dymensions - Heart and Soul
TTITLE21=Vernon Green and The Medallions - For Your Precious Love
EXTD=
EXTT0=
EXTT1=
EXTT2=
EXTT3=
EXTT4=
EXTT5=
EXTT6=
EXTT7=
EXTT8=
EXTT9=
EXTT10=
EXTT11=
EXTT12=
EXTT13=
EXTT14=
EXTT15=
EXTT16=
EXTT17=
EXTT18=
EXTT19=
EXTT20=
EXTT21=
PLAYORDER=
